<?xml version="1.0" encoding="UTF-8" standalone="no"?>
<!-- Created with Inkscape (http://www.inkscape.org/) -->

<svg
   width="158.09109mm"
   height="30.813446mm"
   viewBox="0 0 158.09109 30.813446"
   version="1.1"
   id="svg1"
   xml:space="preserve"
   xmlns="http://www.w3.org/2000/svg"
   xmlns:svg="http://www.w3.org/2000/svg"><defs
     id="defs1" /><g
     id="layer1"
     transform="translate(-8.9467194,-96.221548)"><g
       id="layer1-9"
       transform="translate(3.6967337,91.500621)"
       style="fill:#5a393e;fill-opacity:1;stroke:#5a393e;stroke-opacity:1"><g
         aria-label="PEARPRINT"
         id="text236"
         style="font-size:22.4596px;font-family:'Nothing You Could Do';-inkscape-font-specification:'Nothing You Could Do';text-align:center;text-anchor:middle;fill:#5a393e;fill-opacity:1;stroke:#5a393e;stroke-width:0;stroke-opacity:1;paint-order:markers fill stroke"><path
           d="m 39.977789,24.627126 h -2.982915 v 4.551139 q 0,0.976028 -0.460598,1.480492 -0.460597,0.504463 -1.16246,0.504463 -0.734762,0 -1.184393,-0.493497 -0.44963,-0.504463 -0.44963,-1.469524 v -12.39226 q 0,-1.074727 0.493497,-1.535325 0.493497,-0.460597 1.568224,-0.460597 h 4.178275 q 1.853356,0 2.851317,0.285132 0.986994,0.274165 1.699823,0.910228 0.723796,0.636063 1.09666,1.557257 0.372865,0.921195 0.372865,2.072688 0,2.456519 -1.513391,3.728644 -1.513391,1.26116 -4.507274,1.26116 z m -0.789595,-7.369557 h -2.19332 v 4.913038 h 2.19332 q 1.151493,0 1.919155,-0.241265 0.778629,-0.241266 1.184393,-0.789596 0.405764,-0.54833 0.405764,-1.436625 0,-1.06376 -0.625096,-1.732723 -0.701862,-0.712829 -2.884216,-0.712829 z"
           style="font-family:'Arial Rounded MT Bold';-inkscape-font-specification:'Arial Rounded MT Bold, ';fill:#5a393e;fill-opacity:1;stroke:#5a393e;stroke-opacity:1"
           id="path11136" /><path
           d="m 59.311908,17.323369 h -7.336656 v 3.947976 h 6.755426 q 0.745729,0 1.107627,0.339965 0.372865,0.328998 0.372865,0.877328 0,0.54833 -0.361898,0.899262 -0.361898,0.339964 -1.118594,0.339964 h -6.755426 v 4.573073 h 7.588888 q 0.767662,0 1.151493,0.361898 0.394798,0.350931 0.394798,0.943128 0,0.570263 -0.394798,0.932161 -0.383831,0.350931 -1.151493,0.350931 h -8.850048 q -1.06376,0 -1.535324,-0.471564 -0.460597,-0.471564 -0.460597,-1.524357 V 16.807939 q 0,-0.701863 0.208365,-1.140527 0.208366,-0.449631 0.64703,-0.64703 0.449631,-0.208365 1.140526,-0.208365 h 8.597816 q 0.778629,0 1.151493,0.350931 0.383832,0.339965 0.383832,0.899262 0,0.570263 -0.383832,0.921194 -0.372864,0.339965 -1.151493,0.339965 z"
           style="font-family:'Arial Rounded MT Bold';-inkscape-font-specification:'Arial Rounded MT Bold, ';fill:#5a393e;fill-opacity:1;stroke:#5a393e;stroke-opacity:1"
           id="path11138" /><path
           d="m 73.985222,29.068599 -0.767663,-2.017854 h -6.536094 l -0.767662,2.061721 q -0.449631,1.206326 -0.767662,1.634023 -0.318032,0.416731 -1.041828,0.416731 -0.614129,0 -1.085693,-0.44963 -0.471564,-0.449631 -0.471564,-1.019894 0,-0.328998 0.109666,-0.67993 0.109666,-0.350931 0.361898,-0.976027 l 4.112475,-10.440205 q 0.175466,-0.449631 0.416731,-1.074727 0.252232,-0.636063 0.526397,-1.052794 0.285132,-0.416731 0.734763,-0.668963 0.460597,-0.263198 1.12956,-0.263198 0.679929,0 1.12956,0.263198 0.460597,0.252232 0.734762,0.657997 0.285131,0.405764 0.471564,0.877328 0.197399,0.460597 0.493497,1.239226 l 4.200208,10.374405 q 0.493497,1.184393 0.493497,1.721756 0,0.559297 -0.471564,1.030861 -0.460597,0.460597 -1.118593,0.460597 -0.383831,0 -0.657996,-0.142566 -0.274165,-0.131599 -0.460597,-0.361897 -0.186433,-0.241266 -0.405765,-0.723796 -0.208365,-0.493497 -0.361897,-0.866362 z M 67.53686,24.605192 h 4.803371 l -2.423619,-6.634794 z"
           style="font-family:'Arial Rounded MT Bold';-inkscape-font-specification:'Arial Rounded MT Bold, ';fill:#5a393e;fill-opacity:1;stroke:#5a393e;stroke-opacity:1"
           id="path11140" /><path
           d="m 84.22803,24.012996 h -1.140527 v 5.165269 q 0,1.019894 -0.44963,1.502425 -0.449631,0.48253 -1.173427,0.48253 -0.778628,0 -1.206326,-0.504463 -0.427697,-0.504464 -0.427697,-1.480492 V 16.807939 q 0,-1.052794 0.471563,-1.524358 0.471564,-0.471564 1.524358,-0.471564 h 5.296869 q 1.09666,0 1.875289,0.0987 0.778628,0.08773 1.403725,0.372865 0.756695,0.318031 1.337925,0.910228 0.58123,0.592196 0.877328,1.381792 0.307065,0.778628 0.307065,1.655957 0,1.798522 -1.019894,2.873249 -1.008927,1.074727 -3.070648,1.524358 0.866361,0.460597 1.655957,1.359858 0.789595,0.899262 1.403725,1.919156 0.625096,1.008927 0.965061,1.831422 0.350931,0.811529 0.350931,1.118594 0,0.318031 -0.208366,0.636063 -0.197398,0.307064 -0.54833,0.48253 -0.350931,0.186432 -0.811528,0.186432 -0.54833,0 -0.921195,-0.263198 -0.372864,-0.252232 -0.647029,-0.64703 -0.263199,-0.394797 -0.723796,-1.162459 L 88.044407,26.919145 Q 87.342545,25.723786 86.783248,25.09869 86.234918,24.473593 85.664655,24.243295 85.094391,24.012996 84.22803,24.012996 Z m 1.864322,-6.755427 h -3.004849 v 4.419541 h 2.917116 q 1.173427,0 1.973989,-0.197399 0.800562,-0.208366 1.217293,-0.690896 0.427697,-0.493497 0.427697,-1.348892 0,-0.668963 -0.339965,-1.173426 -0.339964,-0.515431 -0.943127,-0.767663 -0.570264,-0.241265 -2.248154,-0.241265 z"
           style="font-family:'Arial Rounded MT Bold';-inkscape-font-specification:'Arial Rounded MT Bold, ';fill:#5a393e;fill-opacity:1;stroke:#5a393e;stroke-opacity:1"
           id="path11142" /><path
           d="m 102.24615,24.627126 h -2.982913 v 4.551139 q 0,0.976028 -0.460597,1.480492 -0.460597,0.504463 -1.16246,0.504463 -0.734762,0 -1.184393,-0.493497 -0.44963,-0.504463 -0.44963,-1.469524 v -12.39226 q 0,-1.074727 0.493497,-1.535325 0.493497,-0.460597 1.568224,-0.460597 h 4.178272 q 1.85336,0 2.85132,0.285132 0.98699,0.274165 1.69982,0.910228 0.7238,0.636063 1.09666,1.557257 0.37287,0.921195 0.37287,2.072688 0,2.456519 -1.51339,3.728644 -1.51339,1.26116 -4.50728,1.26116 z m -0.78959,-7.369557 h -2.193323 v 4.913038 h 2.193323 q 1.15149,0 1.91915,-0.241265 0.77863,-0.241266 1.1844,-0.789596 0.40576,-0.54833 0.40576,-1.436625 0,-1.06376 -0.6251,-1.732723 -0.70186,-0.712829 -2.88421,-0.712829 z"
           style="font-family:'Arial Rounded MT Bold';-inkscape-font-specification:'Arial Rounded MT Bold, ';fill:#5a393e;fill-opacity:1;stroke:#5a393e;stroke-opacity:1"
           id="path11144" /><path
           d="m 115.36221,24.012996 h -1.14053 v 5.165269 q 0,1.019894 -0.44963,1.502425 -0.44963,0.48253 -1.17343,0.48253 -0.77862,0 -1.20632,-0.504463 -0.4277,-0.504464 -0.4277,-1.480492 V 16.807939 q 0,-1.052794 0.47156,-1.524358 0.47157,-0.471564 1.52436,-0.471564 h 5.29687 q 1.09666,0 1.87529,0.0987 0.77863,0.08773 1.40372,0.372865 0.7567,0.318031 1.33793,0.910228 0.58123,0.592196 0.87733,1.381792 0.30706,0.778628 0.30706,1.655957 0,1.798522 -1.01989,2.873249 -1.00893,1.074727 -3.07065,1.524358 0.86636,0.460597 1.65596,1.359858 0.78959,0.899262 1.40372,1.919156 0.6251,1.008927 0.96506,1.831422 0.35093,0.811529 0.35093,1.118594 0,0.318031 -0.20836,0.636063 -0.1974,0.307064 -0.54833,0.48253 -0.35093,0.186432 -0.81153,0.186432 -0.54833,0 -0.92119,-0.263198 -0.37287,-0.252232 -0.64703,-0.64703 -0.2632,-0.394797 -0.7238,-1.162459 l -1.30502,-2.171388 q -0.70187,-1.195359 -1.26116,-1.820455 -0.54833,-0.625097 -1.1186,-0.855395 -0.57026,-0.230299 -1.43662,-0.230299 z m 1.86432,-6.755427 h -3.00485 v 4.419541 h 2.91712 q 1.17342,0 1.97399,-0.197399 0.80056,-0.208366 1.21729,-0.690896 0.4277,-0.493497 0.4277,-1.348892 0,-0.668963 -0.33997,-1.173426 -0.33996,-0.515431 -0.94313,-0.767663 -0.57026,-0.241265 -2.24815,-0.241265 z"
           style="font-family:'Arial Rounded MT Bold';-inkscape-font-specification:'Arial Rounded MT Bold, ';fill:#5a393e;fill-opacity:1;stroke:#5a393e;stroke-opacity:1"
           id="path11146" /><path
           d="M 127.27194,29.178265 V 16.51184 q 0,-0.986994 0.44963,-1.480491 0.44963,-0.493497 1.16246,-0.493497 0.73476,0 1.1844,0.493497 0.46059,0.482531 0.46059,1.480491 v 12.666425 q 0,0.997961 -0.46059,1.491458 -0.44964,0.493497 -1.1844,0.493497 -0.70186,0 -1.16246,-0.493497 -0.44963,-0.504463 -0.44963,-1.491458 z"
           style="font-family:'Arial Rounded MT Bold';-inkscape-font-specification:'Arial Rounded MT Bold, ';fill:#5a393e;fill-opacity:1;stroke:#5a393e;stroke-opacity:1"
           id="path11148" /><path
           d="m 138.41401,16.489907 6.26193,9.475144 v -9.562877 q 0,-0.932161 0.3948,-1.392758 0.40576,-0.471564 1.08569,-0.471564 0.70187,0 1.10763,0.471564 0.40576,0.460597 0.40576,1.392758 v 12.644492 q 0,2.116554 -1.75465,2.116554 -0.43867,0 -0.7896,-0.131599 -0.35093,-0.120633 -0.65799,-0.394798 -0.30707,-0.274165 -0.57027,-0.636062 -0.2632,-0.372865 -0.52639,-0.756696 l -6.1084,-9.365478 v 9.420311 q 0,0.921195 -0.4277,1.392758 -0.4277,0.471564 -1.09666,0.471564 -0.69089,0 -1.10763,-0.471564 -0.41673,-0.48253 -0.41673,-1.392758 V 16.895671 q 0,-0.789595 0.17547,-1.239226 0.20836,-0.493497 0.69089,-0.800562 0.48254,-0.318031 1.04183,-0.318031 0.43867,0 0.74573,0.142566 0.31803,0.142566 0.54833,0.383831 0.24127,0.241265 0.48253,0.625096 0.25223,0.383831 0.51543,0.800562 z"
           style="font-family:'Arial Rounded MT Bold';-inkscape-font-specification:'Arial Rounded MT Bold, ';fill:#5a393e;fill-opacity:1;stroke:#5a393e;stroke-opacity:1"
           id="path11150" /><path
           d="m 161.67417,17.498834 h -3.55318 v 11.679431 q 0,1.008928 -0.44963,1.502425 -0.44963,0.48253 -1.16246,0.48253 -0.7238,0 -1.18439,-0.493497 -0.44964,-0.493497 -0.44964,-1.491458 V 17.498834 h -3.55317 q -0.83347,0 -1.23923,-0.361897 -0.40576,-0.372865 -0.40576,-0.976028 0,-0.625096 0.41673,-0.986994 0.42769,-0.361898 1.22826,-0.361898 h 10.35247 q 0.84443,0 1.25019,0.372865 0.41673,0.372864 0.41673,0.976027 0,0.603163 -0.41673,0.976028 -0.41673,0.361897 -1.25019,0.361897 z"
           style="font-family:'Arial Rounded MT Bold';-inkscape-font-specification:'Arial Rounded MT Bold, ';fill:#5a393e;fill-opacity:1;stroke:#5a393e;stroke-opacity:1"
           id="path11152" /></g><g
         style="fill:#5a393e;fill-opacity:1;stroke:#5a393e;stroke-width:25.6194;stroke-dasharray:none;stroke-opacity:1"
         id="g6040"
         transform="matrix(0.05659782,0,0,0.05659782,0.81271145,5.4344674)"><g
           id="SVGRepo_bgCarrier-9"
           stroke-width="0"
           style="fill:#5a393e;fill-opacity:1;stroke:#5a393e;stroke-width:25.6194;stroke-dasharray:none;stroke-opacity:1" /><g
           id="SVGRepo_tracerCarrier-9"
           stroke-linecap="round"
           stroke-linejoin="round"
           style="fill:#5a393e;fill-opacity:1;stroke:#5a393e;stroke-width:25.6194;stroke-dasharray:none;stroke-opacity:1" /><g
           id="SVGRepo_iconCarrier-0"
           style="fill:#5a393e;fill-opacity:1;stroke:#5a393e;stroke-width:25.6194;stroke-dasharray:none;stroke-opacity:1"> <style
   type="text/css"
   id="style6019"> .st0{fill:#000000;} </style> <g
   id="g6025"
   style="fill:#5a393e;fill-opacity:1;stroke:#5a393e;stroke-width:25.6194;stroke-dasharray:none;stroke-opacity:1"> <path
   class="st0"
   d="m 354.67647,188.04523 c 0,-48.29465 -35.64093,-88.155183 -82.03621,-95.012407 2.06772,-7.218237 4.5512,-14.407066 7.65632,-21.180121 5.04405,-11.039298 11.56257,-20.918487 19.71173,-28.313175 4.02185,-3.652724 4.32101,-9.879189 0.66118,-13.900024 -3.65069,-4.019822 -9.87918,-4.319991 -13.89901,-0.660168 -10.70161,9.74026 -18.51917,21.91026 -24.37042,34.678569 -4.27436,9.355923 -7.48798,19.050548 -9.95626,28.530189 -50.28428,3.136556 -90.13771,44.787957 -90.13771,95.858147 0,82.68928 -71.096289,88.89343 -71.096289,177.45627 0,92.39101 74.894029,153.50873 167.285029,153.50873 92.391,0 167.28503,-61.11772 167.28503,-153.50873 0,-88.56284 -71.10339,-94.76699 -71.10339,-177.45728 z m -96.18164,299.47673 c -78.68467,0 -135.79676,-51.31662 -135.79676,-122.02046 0,-34.27192 13.17698,-51.28416 29.86675,-72.82631 18.36705,-23.71634 41.23055,-53.22208 41.23055,-104.62996 0,-31.51159 22.67082,-57.7966 52.5609,-63.4927 -1.86794,15.21326 -2.08293,27.11453 -2.08293,31.55823 0,1.16823 0.0152,1.82941 0.0152,1.89837 0.12271,5.43548 4.62827,9.74026 10.06375,9.61755 5.43548,-0.12372 9.74026,-4.62827 9.61756,-10.06375 l -0.008,-0.32248 -0.007,-1.12969 c -0.008,-4.12832 0.2231,-16.63703 2.32123,-32.22753 32.01154,3.8596 56.91232,31.13537 56.91232,64.162 0,51.40788 22.8635,80.91362 41.23766,104.62996 16.68165,21.54215 29.86675,38.55439 29.86675,72.82631 -10e-4,70.70485 -57.11413,122.02046 -135.79778,122.02046 z"
   id="path6021"
   style="fill:#5a393e;fill-opacity:1;stroke:#5a393e;stroke-width:25.6194;stroke-dasharray:none;stroke-opacity:1" /> <path
   class="st0"
   d="m 244.303,71.203 c 0,0 9.241,-28.853 -15.041,-52.643 -25.51,-24.972 -56.6,-17.519 -56.6,-17.519 0,0 -6.807,31.241 18.688,56.221 24.289,23.782 52.953,13.941 52.953,13.941 z"
   id="path6023"
   style="fill:#5a393e;fill-opacity:1;stroke:#5a393e;stroke-width:25.6194;stroke-dasharray:none;stroke-opacity:1" /> </g> </g></g><g
         aria-label=".NL"
         id="text573"
         style="font-size:22.0948px;font-family:'Arial Rounded MT Bold';-inkscape-font-specification:'Arial Rounded MT Bold, ';fill:#5a393e;fill-opacity:1;stroke:#5a393e;stroke-width:0.27;stroke-linecap:square;stroke-miterlimit:0.7;stroke-opacity:1" /></g></g><style
     type="text/css"
     id="style288">
	.st0{fill:#000000;}
</style><style
     type="text/css"
     id="style288-2">
	.st0{fill:#000000;}
</style></svg>
